<svg width="218" height="63" viewBox="0 0 218 63" fill="none" xmlns="http://www.w3.org/2000/svg">
<path d="M0.290639 47L0.424639 46.33L1.69764 45.928C3.30564 45.3027 4.24364 44.186 4.51164 42.578L8.12964 23.55C8.57631 21.1827 9.04531 18.5697 9.53664 15.711C10.028 12.8077 10.497 10.0607 10.9436 7.47C11.2563 5.68333 10.564 4.455 8.86664 3.785L8.19664 3.45L8.33064 2.78H38.5476L36.8726 14.438H36.2026L34.8626 8.274C34.55 6.84467 33.9916 5.795 33.1876 5.125C32.3836 4.455 31.2 4.12 29.6366 4.12H20.8596L17.1746 23.55H23.3386C25.3486 23.55 26.8673 22.746 27.8946 21.138L30.1056 17.788H30.7756L28.3636 30.585H27.6936L26.8896 27.905C26.309 25.895 24.969 24.89 22.8696 24.89H16.9066C16.326 28.1507 15.7006 31.59 15.0306 35.208C14.3606 38.826 13.7576 42.31 13.2216 45.66H24.0086C25.3933 45.66 26.577 45.392 27.5596 44.856C28.5423 44.2753 29.5026 43.315 30.4406 41.975L34.9296 35.342H35.5996L32.9196 47H0.290639ZM52.4004 48.005C50.6137 48.005 49.0281 47.3127 47.6434 45.928C46.3034 44.5433 45.6334 42.1313 45.6334 38.692C45.6334 36.3693 46.0801 34.0243 46.9734 31.657C47.8667 29.2897 49.0504 27.0563 50.5244 24.957C52.0431 22.813 53.7404 20.8923 55.6164 19.195C57.5371 17.4977 59.5247 16.18 61.5794 15.242C63.6341 14.2593 65.6441 13.768 67.6094 13.768C68.5027 13.768 69.3514 13.902 70.1554 14.17L71.1604 9.145C71.5624 7.135 70.8254 5.77266 68.9494 5.058L67.4754 4.455L67.6094 3.785L80.6074 0.0329977L81.0764 0.502L72.8354 39.496C72.7014 40.2107 72.5897 40.8137 72.5004 41.305C72.4557 41.7517 72.4334 42.1983 72.4334 42.645C72.4334 43.583 72.8131 44.052 73.5724 44.052C74.1084 44.052 74.8231 43.784 75.7164 43.248C76.6544 42.6673 77.5924 41.8187 78.5304 40.702L79.2674 41.372C78.1954 43.1587 76.7437 44.722 74.9124 46.062C73.0811 47.3573 71.1381 48.005 69.0834 48.005C67.6094 48.005 66.4481 47.536 65.5994 46.598C64.7507 45.6153 64.3264 44.3647 64.3264 42.846C64.3264 42.0867 64.3934 41.1933 64.5274 40.166C62.6961 42.4887 60.6861 44.387 58.4974 45.861C56.3534 47.2903 54.3211 48.005 52.4004 48.005ZM53.8074 36.548C53.8074 38.7813 54.1647 40.3893 54.8794 41.372C55.5941 42.3547 56.5321 42.846 57.6934 42.846C59.7481 42.846 62.1154 41.2827 64.7954 38.156C64.8401 37.9327 64.8847 37.687 64.9294 37.419L69.0164 17.654C67.8997 16.6267 66.5821 16.113 65.0634 16.113C63.9467 16.113 62.8971 16.381 61.9144 16.917C60.9764 17.4083 60.0831 18.123 59.2344 19.061C58.2071 20.2223 57.2691 21.7857 56.4204 23.751C55.6164 25.6717 54.9687 27.771 54.4774 30.049C54.0307 32.2823 53.8074 34.4487 53.8074 36.548ZM95.1286 62.812C91.3766 62.812 88.4063 62.2313 86.2176 61.07C84.0736 59.9087 83.0016 58.2113 83.0016 55.978C83.0016 54.5933 83.493 53.3203 84.4756 52.159C85.4583 51.0423 86.6643 50.0597 88.0936 49.211C89.5676 48.3623 91.064 47.6923 92.5826 47.201C91.064 46.799 89.8803 46.263 89.0316 45.593C88.183 44.8783 87.7586 43.985 87.7586 42.913C87.7586 41.841 88.384 40.5903 89.6346 39.161C90.93 37.687 92.4486 36.28 94.1906 34.94C92.8953 34.0467 91.9126 32.93 91.2426 31.59C90.5726 30.25 90.2376 28.843 90.2376 27.369C90.2376 24.9123 90.863 22.6567 92.1136 20.602C93.3643 18.5473 95.0393 16.8947 97.1386 15.644C99.2826 14.3933 101.628 13.768 104.174 13.768C105.871 13.768 107.434 14.0137 108.864 14.505C110.338 14.9517 111.566 15.644 112.549 16.582C113.978 16.3587 115.34 16.0237 116.636 15.577C117.976 15.0857 119.249 14.4827 120.455 13.768L120.924 14.237L120.254 17.721H113.554C114.626 19.1503 115.162 20.87 115.162 22.88C115.162 25.6047 114.559 28.0167 113.353 30.116C112.191 32.2153 110.561 33.868 108.462 35.074C106.362 36.2353 103.906 36.816 101.092 36.816C98.9476 36.816 97.0493 36.414 95.3966 35.61L94.3916 37.285C94.0343 37.821 93.9226 38.357 94.0566 38.893C94.1906 39.429 94.6596 39.764 95.4636 39.898L106.452 42.109C110.159 42.8683 112.75 43.851 114.224 45.057C115.742 46.263 116.502 47.9157 116.502 50.015C116.502 52.5163 115.564 54.7273 113.688 56.648C111.856 58.5687 109.333 60.065 106.117 61.137C102.901 62.2537 99.238 62.812 95.1286 62.812ZM102.298 35.476C103.772 35.476 105.022 34.6273 106.05 32.93C107.122 31.2327 107.658 28.2847 107.658 24.086C107.658 21.2273 107.278 19.0163 106.519 17.453C105.759 15.8897 104.799 15.108 103.638 15.108C101.851 15.1527 100.489 16.2023 99.5506 18.257C98.6126 20.267 98.1436 22.9693 98.1436 26.364C98.1436 28.8207 98.4563 30.9647 99.0816 32.796C99.7516 34.6273 100.824 35.5207 102.298 35.476ZM89.7686 53.633C89.7686 55.8663 90.5726 57.6083 92.1806 58.859C93.7886 60.1543 95.955 60.802 98.6796 60.802C102.119 60.802 104.821 60.2213 106.787 59.06C108.752 57.8987 109.735 56.2237 109.735 54.035C109.735 52.7397 109.154 51.7123 107.993 50.953C106.876 50.1937 104.888 49.546 102.03 49.01L94.1906 47.536C93.9673 47.4913 93.7663 47.4467 93.5876 47.402C92.4263 48.1167 91.4883 48.9877 90.7736 50.015C90.1036 51.087 89.7686 52.293 89.7686 53.633ZM138.543 48.005C135.193 48.005 132.468 46.9107 130.369 44.722C128.27 42.5333 127.22 39.429 127.22 35.409C127.22 32.5503 127.711 29.8257 128.694 27.235C129.677 24.6443 131.039 22.344 132.781 20.334C134.568 18.2793 136.622 16.6713 138.945 15.51C141.268 14.3487 143.791 13.768 146.516 13.768C149.33 13.768 151.474 14.4157 152.948 15.711C154.467 16.9617 155.226 18.6367 155.226 20.736C155.226 22.478 154.4 24.1977 152.747 25.895C151.139 27.5923 148.861 29.1333 145.913 30.518C142.965 31.858 139.503 32.8853 135.528 33.6C135.573 36.682 136.243 38.9377 137.538 40.367C138.833 41.7963 140.62 42.511 142.898 42.511C144.819 42.511 146.583 41.9973 148.191 40.97C149.799 39.898 151.161 38.6473 152.278 37.218L152.948 37.687C152.055 39.429 150.893 41.0817 149.464 42.645C148.079 44.2083 146.471 45.5037 144.64 46.531C142.809 47.5137 140.776 48.005 138.543 48.005ZM146.047 15.577C145.02 15.577 143.903 16.0237 142.697 16.917C141.536 17.8103 140.419 19.0387 139.347 20.602C138.32 22.1207 137.449 23.885 136.734 25.895C136.064 27.8603 135.662 29.9597 135.528 32.193C140.441 30.853 143.925 29.0887 145.98 26.9C148.079 24.7113 149.129 22.2323 149.129 19.463C149.129 18.123 148.839 17.1403 148.258 16.515C147.677 15.8897 146.94 15.577 146.047 15.577ZM194.003 42.779L196.08 31.188H183.551L184.757 24.019H197.353L199.43 12.428H206.733L204.656 24.019H217.185L215.979 31.188H203.383L201.373 42.779H194.003Z" fill="url(#paint0_linear_1_25)"/>
<defs>
<linearGradient id="paint0_linear_1_25" x1="110" y1="0" x2="110" y2="47" gradientUnits="userSpaceOnUse">
<stop stop-color="#E1B763"/>
<stop offset="1" stop-color="#B18940"/>
</linearGradient>
</defs>
</svg>
