<svg width="136" height="58" viewBox="0 0 136 58" fill="none" xmlns="http://www.w3.org/2000/svg">
<path d="M14 31.75V29H0V31.75H4.45455C6.11164 31.75 7.51036 32.9023 8.03727 34.5H0V37.25H8.03727C7.77602 38.0519 7.29136 38.7468 6.64985 39.2392C6.00835 39.7316 5.24147 39.9974 4.45455 40H0V43.3192L7.10946 51H10.7087L3.07236 42.75H4.45455C5.92068 42.7479 7.34129 42.1997 8.47686 41.1978C9.61243 40.1959 10.3935 38.8016 10.6884 37.25H14V34.5H10.6884C10.4933 33.4993 10.0912 32.5592 9.51236 31.75H14Z" fill="#EBECEC"/>
<path d="M23.0655 49V31.7714L19.8529 32.4822V30.8332L23.8615 29.099H25.482V49H23.0655ZM31.6445 49V31.7714L28.4319 32.4822V30.8332L32.4405 29.099H34.061V49H31.6445ZM44.8291 49.3412C43.5782 49.3412 42.5073 49.0948 41.6165 48.602C40.7257 48.1092 40.015 47.4553 39.4843 46.6403C38.9725 45.8064 38.6598 44.8871 38.5461 43.8826H40.7636C40.9531 44.9629 41.408 45.7969 42.1282 46.3844C42.8485 46.972 43.7582 47.2658 44.8575 47.2658C46.3738 47.2658 47.6342 46.5645 48.6387 45.1619C49.6432 43.7404 50.1834 41.5324 50.2592 38.5378C49.8044 39.4286 49.0746 40.2057 48.0701 40.869C47.0845 41.5134 45.8905 41.8356 44.4879 41.8356C43.3697 41.8356 42.3083 41.5703 41.3038 41.0396C40.2993 40.5089 39.4843 39.7697 38.8588 38.8221C38.2333 37.8554 37.9206 36.7277 37.9206 35.4389C37.9206 34.3206 38.1954 33.2498 38.7451 32.2263C39.3137 31.2028 40.1097 30.3689 41.1332 29.7245C42.1567 29.08 43.3792 28.7578 44.8007 28.7578C46.2411 28.7578 47.4541 29.0327 48.4397 29.5823C49.4253 30.113 50.2118 30.8332 50.7994 31.743C51.4059 32.6527 51.8418 33.6762 52.1072 34.8134C52.3915 35.9317 52.5336 37.0784 52.5336 38.2535C52.5336 40.452 52.2304 42.3853 51.6239 44.0532C51.0174 45.7021 50.136 47.0004 48.9799 47.9481C47.8427 48.8768 46.4591 49.3412 44.8291 49.3412ZM44.9712 39.7602C45.8621 39.7602 46.6581 39.5612 47.3594 39.1632C48.0606 38.7462 48.6198 38.1966 49.0367 37.5143C49.4537 36.832 49.6622 36.0928 49.6622 35.2967C49.6622 34.4438 49.4537 33.6857 49.0367 33.0223C48.6198 32.34 48.0606 31.8093 47.3594 31.4303C46.6581 31.0512 45.8621 30.8617 44.9712 30.8617C44.0804 30.8617 43.2844 31.0512 42.5831 31.4303C41.8819 31.8093 41.3322 32.34 40.9342 33.0223C40.5362 33.6857 40.3372 34.4533 40.3372 35.3252C40.3372 36.6709 40.7731 37.7512 41.6449 38.5662C42.5357 39.3622 43.6445 39.7602 44.9712 39.7602ZM62.7367 49.3412C61.4857 49.3412 60.4149 49.0948 59.5241 48.602C58.6333 48.1092 57.9225 47.4553 57.3918 46.6403C56.8801 45.8064 56.5674 44.8871 56.4536 43.8826H58.6712C58.8607 44.9629 59.3156 45.7969 60.0358 46.3844C60.756 46.972 61.6658 47.2658 62.7651 47.2658C64.2814 47.2658 65.5418 46.5645 66.5463 45.1619C67.5508 43.7404 68.091 41.5324 68.1668 38.5378C67.7119 39.4286 66.9822 40.2057 65.9777 40.869C64.9921 41.5134 63.7981 41.8356 62.3955 41.8356C61.2773 41.8356 60.2159 41.5703 59.2113 41.0396C58.2068 40.5089 57.3918 39.7697 56.7664 38.8221C56.1409 37.8554 55.8282 36.7277 55.8282 35.4389C55.8282 34.3206 56.103 33.2498 56.6526 32.2263C57.2212 31.2028 58.0173 30.3689 59.0408 29.7245C60.0642 29.08 61.2867 28.7578 62.7082 28.7578C64.1487 28.7578 65.3617 29.0327 66.3473 29.5823C67.3329 30.113 68.1194 30.8332 68.707 31.743C69.3135 32.6527 69.7494 33.6762 70.0147 34.8134C70.299 35.9317 70.4412 37.0784 70.4412 38.2535C70.4412 40.452 70.1379 42.3853 69.5314 44.0532C68.9249 45.7021 68.0436 47.0004 66.8874 47.9481C65.7502 48.8768 64.3667 49.3412 62.7367 49.3412ZM62.8788 39.7602C63.7696 39.7602 64.5657 39.5612 65.2669 39.1632C65.9682 38.7462 66.5273 38.1966 66.9443 37.5143C67.3613 36.832 67.5698 36.0928 67.5698 35.2967C67.5698 34.4438 67.3613 33.6857 66.9443 33.0223C66.5273 32.34 65.9682 31.8093 65.2669 31.4303C64.5657 31.0512 63.7696 30.8617 62.8788 30.8617C61.988 30.8617 61.192 31.0512 60.4907 31.4303C59.7894 31.8093 59.2398 32.34 58.8418 33.0223C58.4437 33.6857 58.2447 34.4533 58.2447 35.3252C58.2447 36.6709 58.6807 37.7512 59.5525 38.5662C60.4433 39.3622 61.5521 39.7602 62.8788 39.7602Z" fill="#EBECEC"/>
<path d="M79.945 50.52L83.961 36.776H85.289L81.273 50.52H79.945ZM86.8898 49V41.064H88.1058L88.2018 42.216C88.4578 41.7893 88.7991 41.4587 89.2258 41.224C89.6525 40.9893 90.1325 40.872 90.6658 40.872C91.2951 40.872 91.8338 41 92.2818 41.256C92.7405 41.512 93.0925 41.9013 93.3378 42.424C93.6151 41.944 93.9938 41.5653 94.4738 41.288C94.9645 41.0107 95.4925 40.872 96.0578 40.872C97.0071 40.872 97.7645 41.16 98.3298 41.736C98.8951 42.3013 99.1778 43.176 99.1778 44.36V49H97.8498V44.504C97.8498 43.6827 97.6845 43.064 97.3538 42.648C97.0231 42.232 96.5485 42.024 95.9298 42.024C95.2898 42.024 94.7565 42.2747 94.3298 42.776C93.9138 43.2667 93.7058 43.9707 93.7058 44.888V49H92.3618V44.504C92.3618 43.6827 92.1965 43.064 91.8658 42.648C91.5351 42.232 91.0605 42.024 90.4418 42.024C89.8125 42.024 89.2845 42.2747 88.8578 42.776C88.4418 43.2667 88.2338 43.9707 88.2338 44.888V49H86.8898ZM105.138 49.192C104.392 49.192 103.72 49.0213 103.122 48.68C102.525 48.3387 102.05 47.8587 101.698 47.24C101.357 46.6107 101.186 45.8747 101.186 45.032C101.186 44.1893 101.362 43.4587 101.714 42.84C102.066 42.2107 102.541 41.7253 103.138 41.384C103.746 41.0427 104.424 40.872 105.17 40.872C105.917 40.872 106.589 41.0427 107.186 41.384C107.784 41.7253 108.253 42.2107 108.594 42.84C108.946 43.4587 109.122 44.1893 109.122 45.032C109.122 45.8747 108.946 46.6107 108.594 47.24C108.242 47.8587 107.762 48.3387 107.154 48.68C106.557 49.0213 105.885 49.192 105.138 49.192ZM105.138 48.04C105.597 48.04 106.024 47.928 106.418 47.704C106.813 47.48 107.133 47.144 107.378 46.696C107.624 46.248 107.746 45.6933 107.746 45.032C107.746 44.3707 107.624 43.816 107.378 43.368C107.144 42.92 106.829 42.584 106.434 42.36C106.04 42.136 105.618 42.024 105.17 42.024C104.712 42.024 104.285 42.136 103.89 42.36C103.496 42.584 103.176 42.92 102.93 43.368C102.685 43.816 102.562 44.3707 102.562 45.032C102.562 45.6933 102.685 46.248 102.93 46.696C103.176 47.144 103.49 47.48 103.874 47.704C104.269 47.928 104.69 48.04 105.138 48.04ZM111.311 49V41.064H112.527L112.607 42.488C112.863 41.9867 113.231 41.592 113.711 41.304C114.191 41.016 114.735 40.872 115.343 40.872C116.282 40.872 117.028 41.16 117.583 41.736C118.148 42.3013 118.431 43.176 118.431 44.36V49H117.087V44.504C117.087 42.8507 116.404 42.024 115.039 42.024C114.356 42.024 113.786 42.2747 113.327 42.776C112.879 43.2667 112.655 43.9707 112.655 44.888V49H111.311ZM123.923 49C123.198 49 122.627 48.824 122.211 48.472C121.795 48.12 121.587 47.4853 121.587 46.568V42.2H120.211V41.064H121.587L121.763 39.16H122.931V41.064H125.267V42.2H122.931V46.568C122.931 47.0693 123.033 47.4107 123.235 47.592C123.438 47.7627 123.795 47.848 124.307 47.848H125.139V49H123.923ZM127.295 49V37.48H128.639V42.424C128.905 41.9333 129.284 41.5547 129.775 41.288C130.265 41.0107 130.799 40.872 131.375 40.872C132.292 40.872 133.028 41.16 133.583 41.736C134.137 42.3013 134.415 43.176 134.415 44.36V49H133.087V44.504C133.087 42.8507 132.42 42.024 131.087 42.024C130.393 42.024 129.812 42.2747 129.343 42.776C128.873 43.2667 128.639 43.9707 128.639 44.888V49H127.295Z" fill="#EBECEC" fill-opacity="0.3"/>
<path d="M4.752 16.192C3.93067 16.192 3.216 16.0427 2.608 15.744C2 15.4453 1.53067 15.0293 1.2 14.496C0.869333 13.9627 0.704 13.344 0.704 12.64H2.112C2.112 13.0773 2.21333 13.4827 2.416 13.856C2.61867 14.2187 2.912 14.512 3.296 14.736C3.69067 14.9493 4.176 15.056 4.752 15.056C5.50933 15.056 6.096 14.8747 6.512 14.512C6.928 14.1493 7.136 13.696 7.136 13.152C7.136 12.704 7.04 12.3467 6.848 12.08C6.656 11.8027 6.39467 11.5787 6.064 11.408C5.744 11.2373 5.37067 11.088 4.944 10.96C4.528 10.832 4.09067 10.688 3.632 10.528C2.768 10.2293 2.128 9.86133 1.712 9.424C1.296 8.976 1.088 8.39467 1.088 7.68C1.07733 7.08267 1.216 6.55467 1.504 6.096C1.792 5.62667 2.19733 5.264 2.72 5.008C3.25333 4.74133 3.88267 4.608 4.608 4.608C5.32267 4.608 5.94133 4.74133 6.464 5.008C6.99733 5.27467 7.408 5.64267 7.696 6.112C7.99467 6.58133 8.14933 7.11467 8.16 7.712H6.752C6.752 7.40267 6.672 7.09867 6.512 6.8C6.352 6.49067 6.10667 6.24 5.776 6.048C5.456 5.856 5.05067 5.76 4.56 5.76C3.952 5.74933 3.45067 5.904 3.056 6.224C2.672 6.544 2.48 6.98667 2.48 7.552C2.48 8.032 2.61333 8.4 2.88 8.656C3.15733 8.912 3.54133 9.12533 4.032 9.296C4.52267 9.456 5.088 9.64267 5.728 9.856C6.26133 10.048 6.74133 10.272 7.168 10.528C7.59467 10.784 7.92533 11.1147 8.16 11.52C8.40533 11.9253 8.528 12.4427 8.528 13.072C8.528 13.6053 8.38933 14.112 8.112 14.592C7.83467 15.0613 7.41333 15.4453 6.848 15.744C6.29333 16.0427 5.59467 16.192 4.752 16.192ZM13.81 16C13.0847 16 12.514 15.824 12.098 15.472C11.682 15.12 11.474 14.4853 11.474 13.568V9.2H10.098V8.064H11.474L11.65 6.16H12.818V8.064H15.154V9.2H12.818V13.568C12.818 14.0693 12.9193 14.4107 13.122 14.592C13.3247 14.7627 13.682 14.848 14.194 14.848H15.026V16H13.81ZM19.8215 16.192C19.1602 16.192 18.6108 16.08 18.1735 15.856C17.7362 15.632 17.4108 15.3333 17.1975 14.96C16.9842 14.5867 16.8775 14.1813 16.8775 13.744C16.8775 12.9333 17.1868 12.3093 17.8055 11.872C18.4242 11.4347 19.2668 11.216 20.3335 11.216H22.4775V11.12C22.4775 10.4267 22.2962 9.904 21.9335 9.552C21.5708 9.18933 21.0855 9.008 20.4775 9.008C19.9548 9.008 19.5015 9.14133 19.1175 9.408C18.7442 9.664 18.5095 10.0427 18.4135 10.544H17.0375C17.0908 9.968 17.2828 9.48267 17.6135 9.088C17.9548 8.69333 18.3762 8.39467 18.8775 8.192C19.3788 7.97867 19.9122 7.872 20.4775 7.872C21.5868 7.872 22.4188 8.17067 22.9735 8.768C23.5388 9.35467 23.8215 10.1387 23.8215 11.12V16H22.6215L22.5415 14.576C22.3175 15.024 21.9868 15.408 21.5495 15.728C21.1228 16.0373 20.5468 16.192 19.8215 16.192ZM20.0295 15.056C20.5415 15.056 20.9788 14.9227 21.3415 14.656C21.7148 14.3893 21.9975 14.0427 22.1895 13.616C22.3815 13.1893 22.4775 12.7413 22.4775 12.272V12.256H20.4455C19.6562 12.256 19.0962 12.3947 18.7655 12.672C18.4455 12.9387 18.2855 13.2747 18.2855 13.68C18.2855 14.096 18.4348 14.432 18.7335 14.688C19.0428 14.9333 19.4748 15.056 20.0295 15.056ZM26.1577 16V8.064H27.3737L27.4857 9.584C27.7311 9.06133 28.1044 8.64533 28.6057 8.336C29.1071 8.02667 29.7257 7.872 30.4617 7.872V9.28H30.0937C29.6244 9.28 29.1924 9.36533 28.7977 9.536C28.4031 9.696 28.0884 9.97333 27.8537 10.368C27.6191 10.7627 27.5017 11.3067 27.5017 12V16H26.1577ZM35.4263 16C34.7009 16 34.1303 15.824 33.7143 15.472C33.2983 15.12 33.0903 14.4853 33.0903 13.568V9.2H31.7143V8.064H33.0903L33.2663 6.16H34.4343V8.064H36.7703V9.2H34.4343V13.568C34.4343 14.0693 34.5356 14.4107 34.7383 14.592C34.9409 14.7627 35.2983 14.848 35.8103 14.848H36.6423V16H35.4263ZM41.8377 16.192C40.8884 16.192 40.0991 15.952 39.4697 15.472C38.8404 14.992 38.4724 14.3413 38.3657 13.52H39.7417C39.8271 13.936 40.0457 14.2987 40.3977 14.608C40.7604 14.9067 41.2457 15.056 41.8537 15.056C42.4191 15.056 42.8351 14.9387 43.1017 14.704C43.3684 14.4587 43.5017 14.1707 43.5017 13.84C43.5017 13.36 43.3257 13.04 42.9737 12.88C42.6324 12.72 42.1471 12.576 41.5177 12.448C41.0911 12.3627 40.6644 12.24 40.2377 12.08C39.8111 11.92 39.4537 11.696 39.1657 11.408C38.8777 11.1093 38.7337 10.72 38.7337 10.24C38.7337 9.54667 38.9897 8.98133 39.5017 8.544C40.0244 8.096 40.7284 7.872 41.6137 7.872C42.4564 7.872 43.1444 8.08533 43.6777 8.512C44.2217 8.928 44.5364 9.52533 44.6217 10.304H43.2937C43.2404 9.89867 43.0644 9.584 42.7657 9.36C42.4777 9.12533 42.0884 9.008 41.5977 9.008C41.1177 9.008 40.7444 9.10933 40.4777 9.312C40.2217 9.51467 40.0937 9.78133 40.0937 10.112C40.0937 10.432 40.2591 10.6827 40.5897 10.864C40.9311 11.0453 41.3897 11.2 41.9657 11.328C42.4564 11.4347 42.9204 11.568 43.3577 11.728C43.8057 11.8773 44.1684 12.1067 44.4457 12.416C44.7337 12.7147 44.8777 13.152 44.8777 13.728C44.8884 14.4427 44.6164 15.0347 44.0617 15.504C43.5177 15.9627 42.7764 16.192 41.8377 16.192ZM51.0481 16L55.1761 4.8H56.6001L60.7121 16H59.2881L58.2641 13.12H53.4961L52.4561 16H51.0481ZM53.8961 12.032H57.8641L55.8801 6.496L53.8961 12.032ZM65.0813 16C64.3559 16 63.7853 15.824 63.3693 15.472C62.9533 15.12 62.7453 14.4853 62.7453 13.568V9.2H61.3693V8.064H62.7453L62.9213 6.16H64.0893V8.064H66.4253V9.2H64.0893V13.568C64.0893 14.0693 64.1906 14.4107 64.3933 14.592C64.5959 14.7627 64.9533 14.848 65.4653 14.848H66.2973V16H65.0813Z" fill="#EBECEC" fill-opacity="0.7"/>
</svg>
